<svg xmlns="http://www.w3.org/2000/svg" viewBox="0 0 512 512">
  <defs>
    <linearGradient id="g" x1="0%" y1="0%" x2="100%" y2="100%">
      <stop offset="0%" stop-color="#22c383"/>
      <stop offset="100%" stop-color="#0f7a54"/>
    </linearGradient>
  </defs>
  <rect width="512" height="512" rx="120" fill="#091016"/>
  <rect x="52" y="52" width="408" height="408" rx="96" fill="url(#g)"/>
  <path d="M154 274c0-60 42-104 102-104 29 0 52 8 74 26l-27 33c-15-12-29-17-47-17-30 0-53 26-53 62 0 39 23 63 59 63 12 0 25-2 34-8v-33h-43v-40h91v98c-21 18-50 31-85 31-66 0-105-42-105-111Z" fill="#fff"/>
</svg>
